<?xml version="1.0" standalone="no"?>
<!DOCTYPE svg PUBLIC "-//W3C//DTD SVG 20010904//EN"
 "http://www.w3.org/TR/2001/REC-SVG-20010904/DTD/svg10.dtd">
<svg version="1.0" xmlns="http://www.w3.org/2000/svg"
 width="500.000000pt" height="500.000000pt" viewBox="0 0 500.000000 500.000000"
 preserveAspectRatio="xMidYMid meet">

<g transform="translate(0.000000,500.000000) scale(0.100000,-0.100000)"
fill="#000000" stroke="none">
<path d="M730 3916 c-148 -33 -219 -115 -240 -277 -5 -46 -10 -241 -10 -434 0
-329 -1 -352 -20 -382 -21 -35 -67 -53 -137 -53 l-43 0 0 -74 0 -74 71 -4 c65
-3 74 -6 100 -36 l29 -32 0 -363 c1 -408 7 -487 47 -567 53 -102 140 -146 316
-157 l97 -6 0 81 0 82 -68 0 c-88 0 -146 28 -176 85 -20 38 -21 59 -26 455 -4
361 -7 419 -22 445 -17 32 -51 66 -81 82 -16 8 -13 12 20 34 20 13 46 40 58
59 19 33 20 55 25 450 5 380 7 418 24 453 27 54 85 85 174 93 l72 7 0 73 0 74
-77 -1 c-43 0 -103 -6 -133 -13z"/>
<path d="M4060 3856 l0 -73 72 -7 c90 -8 144 -37 172 -91 20 -38 21 -59 26
-455 5 -395 6 -417 25 -450 12 -19 38 -46 58 -59 33 -22 36 -26 20 -34 -30
-16 -74 -61 -86 -87 -8 -17 -13 -166 -17 -440 l-5 -415 -24 -42 c-33 -58 -86
-83 -174 -83 l-67 0 0 -80 0 -80 63 0 c156 1 271 44 328 122 59 83 62 103 68
560 l6 418 27 27 c24 23 38 28 98 31 l70 4 0 73 0 72 -65 5 c-72 6 -111 26
-125 64 -6 14 -10 176 -10 372 0 462 -11 542 -89 625 -56 62 -167 97 -303 97
l-68 0 0 -74z"/>
<path d="M2870 3631 c-86 -27 -146 -79 -184 -161 -20 -42 -21 -65 -24 -380 -3
-330 -3 -336 18 -363 18 -22 67 -42 301 -118 l279 -90 0 -175 c0 -172 0 -175
-25 -199 -22 -23 -32 -25 -118 -25 -138 0 -141 2 -147 167 l-5 128 -150 0
-150 0 -3 -159 c-3 -179 10 -256 55 -315 36 -48 48 -58 113 -89 53 -25 63 -27
245 -30 262 -5 338 11 417 90 26 26 43 57 57 103 19 62 21 92 21 382 0 312 0
314 -22 336 -15 15 -117 52 -300 112 l-277 90 -1 177 c0 173 1 178 24 205 23
27 28 28 119 28 87 0 98 -2 121 -24 25 -24 26 -29 26 -142 0 -87 3 -119 14
-128 9 -8 59 -11 152 -9 l139 3 0 190 c0 178 -2 193 -24 243 -30 66 -94 123
-162 145 -42 14 -91 17 -268 16 -119 0 -227 -4 -241 -8z"/>
<path d="M890 3421 l0 -50 71 -3 71 -3 18 -52 c25 -71 51 -115 293 -497 l209
-329 -4 -221 c-3 -188 -6 -226 -21 -253 -20 -37 -47 -54 -97 -62 -32 -6 -35
-9 -38 -44 l-3 -37 270 0 271 0 0 51 0 51 -95 -7 -95 -7 4 299 4 300 160 301
c89 166 175 323 193 349 72 108 146 166 228 179 40 6 41 8 41 45 l0 39 -230 0
-230 0 0 -50 0 -50 85 0 85 0 -34 -52 c-33 -52 -249 -453 -320 -595 -20 -40
-40 -73 -44 -73 -16 0 -317 466 -358 555 -55 116 -17 172 126 187 21 3 25 8
25 38 l0 35 -292 3 -293 2 0 -49z"/>
<path d="M3354 1610 c-12 -5 -24 -15 -27 -22 -8 -22 171 -900 185 -910 7 -4
24 -7 38 -6 20 3 38 26 100 135 41 73 77 133 80 133 3 0 46 -52 95 -116 49
-64 99 -122 110 -130 41 -29 90 -12 108 39 10 28 -5 56 -102 180 -83 107 -89
117 -68 122 12 3 76 16 142 30 115 24 145 39 145 70 0 6 -6 19 -12 28 -12 15
-712 431 -753 447 -11 4 -29 4 -41 0z"/>
</g>
</svg>
